<?xml version="1.0" standalone="no"?><!DOCTYPE svg PUBLIC "-//W3C//DTD SVG 1.1//EN" "http://www.w3.org/Graphics/SVG/1.1/DTD/svg11.dtd"><svg t="1626008052372" class="icon" viewBox="0 0 1024 1024" version="1.1" xmlns="http://www.w3.org/2000/svg" p-id="32602" xmlns:xlink="http://www.w3.org/1999/xlink" width="200" height="200"><defs><style type="text/css"></style></defs><path d="M703.3 262.2H211c-18.3 0-33.2 15-33.2 33.2v498.3c0 18.3 14.9 33.2 33.2 33.2h696.8c18.3 0 33.2-15 33.2-33.2V295.4c0-18.3-14.9-33.2-33.2-33.2H834m-465.4 99.7c27.5 0 49.8 22.3 49.8 49.8 0 27.5-22.3 49.8-49.8 49.8s-49.8-22.3-49.8-49.8c0-27.5 22.3-49.8 49.8-49.8z m91.6 369.5l-176.6-0.1c-7.2 0-11-8.6-6.1-13.9l110.4-119.6c3.3-3.5 8.9-3.6 12.2 0l85.8 92.7c3.3 3.5 8.9 3.5 12.2 0l152.7-165.4c3.3-3.5 8.9-3.6 12.2 0l178.3 192.7c4.9 5.3 1.2 14-6.1 14l-375-0.4z" fill="#C5E5FF" p-id="32603"></path><path d="M912.3 846H111.7C85.4 846 64 824.6 64 798.3V225.7c0-26.3 21.4-47.7 47.7-47.7h565.7c5.3 0 9.5 4.3 9.5 9.5 0 5.3-4.3 9.5-9.5 9.5H111.7c-15.8 0-28.6 12.8-28.6 28.6v572.6c0 15.8 12.8 28.6 28.6 28.6h800.7c15.8 0 28.6-12.8 28.6-28.6V225.7c0-15.8-12.8-28.6-28.6-28.6h-84.8c-5.3 0-9.5-4.3-9.5-9.5 0-5.3 4.3-9.5 9.5-9.5h84.8c26.3 0 47.7 21.4 47.7 47.7v572.6c-0.1 26.2-21.5 47.6-47.8 47.6z m-83.5-109.4l-633.8-0.5c-7.7 0-14.4-4.4-17.4-11.5-3.1-7-1.7-14.9 3.5-20.6L308 566.7c3.6-3.9 8.7-6.1 14-6.1 5.3 0 10.4 2.2 14 6.1l98.6 106.5L610 483.1c3.6-3.9 8.7-6.1 14-6.1 5.3 0 10.4 2.2 14 6.1l204.8 221.4c5.2 5.7 6.6 13.5 3.5 20.6-3.1 7.1-9.8 11.5-17.5 11.5zM322 579.7L195.1 717l633.8 0.5L624 496.1 448.5 686.2c-7.2 7.8-20.8 7.8-28 0L322 579.7z m-29.2-153.6c-36.8 0-66.7-30-66.7-66.8s29.9-66.8 66.7-66.8 66.7 30 66.7 66.8-30 66.8-66.7 66.8z m0-114.5c-26.3 0-47.7 21.4-47.7 47.7 0 26.3 21.4 47.7 47.7 47.7s47.7-21.4 47.7-47.7-21.5-47.7-47.7-47.7z" fill="#3B94FF" p-id="32604"></path></svg>
